<svg width="118" height="118" viewBox="0 0 118 118" fill="none" xmlns="http://www.w3.org/2000/svg">
<path d="M83.9 41.7955C81.6961 38.5561 78.9186 35.8074 75.6435 33.6252C72.3682 31.442 68.7624 29.9359 64.9254 29.1479C60.9524 28.3301 56.9049 28.324 52.8933 29.1267C48.8816 29.9293 45.148 31.4922 41.7956 33.7757C38.5562 35.9795 35.8075 38.7571 33.6253 42.0322C31.4421 45.3075 29.9359 48.9133 29.1479 52.7503C28.3301 56.7233 28.3241 60.7708 29.1267 64.7824C29.9294 68.7941 31.4923 72.5277 33.7757 75.8801C35.9796 79.1195 38.7572 81.8682 42.0323 84.0504C45.3074 86.2326 48.9134 87.7397 52.7504 88.5278C56.7233 89.3456 60.7708 89.3516 64.7825 88.5489C68.7942 87.7463 72.5277 86.1834 75.8802 83.8999C79.1196 81.6961 81.8683 78.9185 84.0505 75.6434C86.2327 72.3683 87.7398 68.7623 88.5278 64.9253C89.3456 60.9523 89.3517 56.9049 88.549 52.8932C87.7464 48.8815 86.1835 45.1479 83.9 41.7955ZM58.7049 77.7921L49.4569 72.5967L40.5503 67.5939L45.7302 58.3729L53.9159 62.971L66.0905 38.4591L75.6863 42.904L58.703 77.7924L58.7049 77.7921Z" fill="#3BCC83"/>
<path d="M107.871 49.0513L100.662 41.4833L100.396 31.0353L90.8464 26.7921L86.5876 17.25L76.1411 16.9936L68.5614 9.79765L58.8082 13.5458L49.0513 9.80493L41.4834 17.0141L31.0354 17.2799L26.7921 26.8293L17.2501 31.0881L16.9936 41.5346L9.7977 49.1142L13.5458 58.8675L9.80498 68.6243L17.0142 76.1923L17.2799 86.6403L26.8294 90.8836L31.0882 100.426L41.5346 100.682L49.1143 107.878L58.8675 104.13L68.6242 107.87L76.1922 100.661L86.6402 100.395L90.8834 90.8453L100.425 86.5866L100.682 76.1401L107.878 68.5604L104.13 58.8072L107.87 49.0505L107.871 49.0513ZM65.8133 93.7008C46.5586 97.5532 27.8274 85.0679 23.9749 65.8132C20.1224 46.5586 32.6078 27.8273 51.8625 23.9749C71.1171 20.1224 89.8483 32.6078 93.7008 51.8624C97.5533 71.1171 85.0679 89.8483 65.8133 93.7008Z" fill="#3BCC83"/>
</svg>
